<svg xmlns="http://www.w3.org/2000/svg" xmlns:xlink="http://www.w3.org/1999/xlink" width="270" zoomAndPan="magnify" viewBox="0 0 202.5 30.000001" height="40" preserveAspectRatio="xMidYMid meet" version="1.0"><defs><g/></defs><g fill="#ffffff" fill-opacity="1"><g transform="translate(8.320988, 22.77328)"><g><path d="M 3.226562 0 C 4.085938 0 4.75 -0.664062 4.75 -1.578125 L 4.75 -8.140625 C 4.75 -9.769531 5.394531 -11.257812 6.527344 -12.386719 C 7.621094 -13.480469 9.105469 -14.144531 10.703125 -14.144531 L 10.792969 -14.144531 C 11.726562 -14.144531 12.441406 -14.808594 12.441406 -15.722656 C 12.441406 -16.65625 11.851562 -17.300781 10.792969 -17.300781 L 10.703125 -17.300781 C 8.246094 -17.300781 5.96875 -16.3125 4.265625 -14.609375 C 2.597656 -12.90625 1.59375 -10.59375 1.59375 -8.140625 L 1.59375 -1.578125 C 1.59375 -1.128906 1.757812 -0.753906 2.097656 -0.449219 C 2.402344 -0.144531 2.777344 0 3.226562 0 Z M 3.226562 0 "/></g></g></g><g fill="#ffffff" fill-opacity="1"><g transform="translate(19.686777, 22.77328)"><g><path d="M 9.539062 0.214844 C 11.597656 0.214844 13.515625 -0.484375 15.042969 -1.757812 L 15.058594 -1.507812 C 15.058594 -0.574219 15.6875 0.125 16.601562 0.125 C 17.515625 0.125 18.214844 -0.589844 18.214844 -1.507812 L 18.214844 -8.640625 C 18.160156 -11.007812 17.226562 -13.175781 15.652344 -14.773438 C 14.054688 -16.367188 11.902344 -17.300781 9.539062 -17.300781 C 7.171875 -17.300781 5 -16.367188 3.40625 -14.738281 C 1.8125 -13.105469 0.859375 -10.917969 0.859375 -8.535156 C 0.859375 -6.148438 1.8125 -3.945312 3.40625 -2.347656 C 5 -0.71875 7.171875 0.214844 9.539062 0.214844 Z M 9.539062 -2.957031 C 8.011719 -2.957031 6.632812 -3.550781 5.628906 -4.605469 C 4.625 -5.628906 4.035156 -7.027344 4.035156 -8.535156 C 4.035156 -10.039062 4.625 -11.4375 5.628906 -12.460938 C 6.632812 -13.480469 8.011719 -14.089844 9.539062 -14.089844 C 11.0625 -14.089844 12.460938 -13.480469 13.480469 -12.460938 C 14.484375 -11.4375 15.058594 -10.039062 15.058594 -8.535156 C 15.058594 -7.027344 14.484375 -5.628906 13.480469 -4.605469 C 12.460938 -3.550781 11.097656 -2.957031 9.539062 -2.957031 Z M 9.539062 -2.957031 "/></g></g></g><g fill="#ffffff" fill-opacity="1"><g transform="translate(38.09721, 22.77328)"><g><path d="M 17.210938 5.414062 C 18.125 5.414062 18.84375 4.734375 18.84375 3.820312 L 18.84375 -15.703125 C 18.84375 -16.152344 18.679688 -16.546875 18.375 -16.851562 C 18.035156 -17.15625 17.660156 -17.316406 17.246094 -17.316406 C 16.816406 -17.316406 16.402344 -17.140625 16.117188 -16.851562 C 15.8125 -16.546875 15.652344 -16.152344 15.652344 -15.703125 L 15.652344 -8.730469 C 15.652344 -7.277344 15.023438 -5.917969 14 -4.914062 C 12.980469 -3.890625 11.597656 -3.296875 10.164062 -3.296875 C 8.675781 -3.296875 7.316406 -3.890625 6.292969 -4.914062 C 5.269531 -5.917969 4.660156 -7.277344 4.660156 -8.730469 L 4.660156 -15.703125 C 4.660156 -16.152344 4.5 -16.546875 4.195312 -16.851562 C 3.910156 -17.140625 3.496094 -17.316406 3.066406 -17.316406 C 2.152344 -17.316406 1.453125 -16.617188 1.453125 -15.703125 L 1.453125 -8.800781 C 1.453125 -6.4375 2.402344 -4.230469 3.996094 -2.636719 C 5.59375 -1.039062 7.796875 -0.0898438 10.164062 -0.0898438 C 12.261719 -0.0898438 14.144531 -0.96875 15.652344 -2.472656 L 15.652344 3.820312 C 15.652344 4.734375 16.332031 5.414062 17.210938 5.414062 Z M 17.210938 5.414062 "/></g></g></g><g fill="#ffffff" fill-opacity="1"><g transform="translate(56.668968, 22.77328)"><g><path d="M 16.871094 0.0195312 C 17.75 0.0195312 18.464844 -0.628906 18.464844 -1.542969 L 18.464844 -8.855469 C 18.464844 -11.152344 17.660156 -13.300781 16.242188 -14.824219 C 14.808594 -16.386719 12.78125 -17.300781 10.503906 -17.300781 C 8.300781 -17.300781 6.308594 -16.277344 4.859375 -14.503906 L 4.859375 -21.996094 C 4.859375 -22.445312 4.695312 -22.839844 4.390625 -23.144531 C 4.085938 -23.449219 3.710938 -23.609375 3.28125 -23.609375 C 2.851562 -23.609375 2.4375 -23.429688 2.152344 -23.144531 C 1.847656 -22.839844 1.683594 -22.445312 1.683594 -21.996094 L 1.683594 -1.578125 C 1.683594 -0.699219 2.367188 0 3.28125 0 C 4.160156 0 4.859375 -0.699219 4.859375 -1.578125 L 4.859375 -8.964844 C 4.859375 -10.378906 5.523438 -11.707031 6.597656 -12.65625 C 7.671875 -13.589844 9.070312 -14.144531 10.503906 -14.144531 C 11.941406 -14.144531 13.140625 -13.589844 14 -12.601562 C 14.84375 -11.652344 15.308594 -10.289062 15.308594 -8.839844 L 15.308594 -1.542969 C 15.308594 -0.628906 15.992188 0.0195312 16.871094 0.0195312 Z M 16.871094 0.0195312 "/></g></g></g><g fill="#ffffff" fill-opacity="1"><g transform="translate(75.509608, 22.77328)"><g><path d="M 9.539062 0.214844 C 11.597656 0.214844 13.515625 -0.484375 15.042969 -1.757812 L 15.058594 -1.507812 C 15.058594 -0.574219 15.6875 0.125 16.601562 0.125 C 17.515625 0.125 18.214844 -0.589844 18.214844 -1.507812 L 18.214844 -8.640625 C 18.160156 -11.007812 17.226562 -13.175781 15.652344 -14.773438 C 14.054688 -16.367188 11.902344 -17.300781 9.539062 -17.300781 C 7.171875 -17.300781 5 -16.367188 3.40625 -14.738281 C 1.8125 -13.105469 0.859375 -10.917969 0.859375 -8.535156 C 0.859375 -6.148438 1.8125 -3.945312 3.40625 -2.347656 C 5 -0.71875 7.171875 0.214844 9.539062 0.214844 Z M 9.539062 -2.957031 C 8.011719 -2.957031 6.632812 -3.550781 5.628906 -4.605469 C 4.625 -5.628906 4.035156 -7.027344 4.035156 -8.535156 C 4.035156 -10.039062 4.625 -11.4375 5.628906 -12.460938 C 6.632812 -13.480469 8.011719 -14.089844 9.539062 -14.089844 C 11.0625 -14.089844 12.460938 -13.480469 13.480469 -12.460938 C 14.484375 -11.4375 15.058594 -10.039062 15.058594 -8.535156 C 15.058594 -7.027344 14.484375 -5.628906 13.480469 -4.605469 C 12.460938 -3.550781 11.097656 -2.957031 9.539062 -2.957031 Z M 9.539062 -2.957031 "/></g></g></g><g fill="#ffffff" fill-opacity="1"><g transform="translate(93.92004, 22.77328)"><g><path d="M 2.867188 0 C 3.746094 0 4.410156 -0.644531 4.410156 -1.558594 L 4.410156 -8.855469 C 4.410156 -10.289062 4.929688 -11.636719 5.863281 -12.585938 C 6.792969 -13.570312 8.050781 -14.109375 9.484375 -14.109375 C 10.898438 -14.109375 12.191406 -13.535156 13.140625 -12.550781 C 14.074219 -11.597656 14.609375 -10.253906 14.628906 -8.820312 L 14.628906 -1.558594 C 14.628906 -0.644531 15.347656 0 16.222656 0 C 17.101562 0 17.785156 -0.644531 17.785156 -1.558594 L 17.785156 -8.855469 C 17.785156 -11.152344 16.90625 -13.265625 15.398438 -14.824219 C 13.839844 -16.386719 11.777344 -17.300781 9.484375 -17.300781 C 7.207031 -17.300781 5.144531 -16.386719 3.621094 -14.824219 C 2.117188 -13.265625 1.238281 -11.152344 1.238281 -8.855469 L 1.238281 -1.558594 C 1.238281 -1.113281 1.398438 -0.753906 1.738281 -0.449219 C 2.042969 -0.144531 2.421875 0 2.867188 0 Z M 2.867188 0 "/></g></g></g><g fill="#ff3131" fill-opacity="1"><g transform="translate(122.698843, 19.901077)"><g><path d="M 3.351562 -16.460938 C 3.78125 -16.460938 4.144531 -16.613281 4.449219 -16.917969 C 4.753906 -17.222656 4.910156 -17.589844 4.910156 -18.003906 C 4.910156 -18.871094 4.269531 -19.542969 3.398438 -19.542969 C 2.988281 -19.542969 2.621094 -19.390625 2.332031 -19.097656 C 2.042969 -18.808594 1.875 -18.429688 1.875 -18.003906 C 1.875 -17.148438 2.5 -16.460938 3.351562 -16.460938 Z M -0.136719 4.480469 C 1.160156 4.480469 2.394531 3.949219 3.292969 3.046875 C 4.191406 2.148438 4.726562 0.929688 4.726562 -0.394531 L 4.726562 -13.324219 C 4.726562 -13.703125 4.589844 -14.039062 4.328125 -14.296875 C 4.070312 -14.558594 3.75 -14.695312 3.382812 -14.695312 C 3.019531 -14.695312 2.699219 -14.558594 2.4375 -14.296875 C 2.164062 -14.039062 2.027344 -13.71875 2.027344 -13.324219 L 2.027344 -0.394531 C 2.027344 0.199219 1.8125 0.714844 1.402344 1.128906 C 0.992188 1.539062 0.457031 1.769531 -0.136719 1.769531 L -0.242188 1.769531 C -0.625 1.769531 -0.945312 1.890625 -1.203125 2.148438 C -1.464844 2.410156 -1.601562 2.742188 -1.601562 3.125 C -1.601562 3.507812 -1.464844 3.839844 -1.203125 4.101562 C -0.945312 4.359375 -0.625 4.480469 -0.242188 4.480469 Z M -0.136719 4.480469 "/></g></g></g><g fill="#ff3131" fill-opacity="1"><g transform="translate(128.201204, 19.901077)"><g><path d="M 14.34375 0.015625 C 15.089844 0.015625 15.699219 -0.535156 15.699219 -1.3125 L 15.699219 -7.53125 C 15.699219 -9.480469 15.015625 -11.308594 13.808594 -12.605469 C 12.589844 -13.933594 10.867188 -14.710938 8.933594 -14.710938 C 7.058594 -14.710938 5.367188 -13.839844 4.128906 -12.332031 L 4.128906 -18.703125 C 4.128906 -19.085938 3.992188 -19.417969 3.734375 -19.679688 C 3.476562 -19.9375 3.15625 -20.074219 2.789062 -20.074219 C 2.421875 -20.074219 2.074219 -19.921875 1.828125 -19.679688 C 1.570312 -19.417969 1.433594 -19.085938 1.433594 -18.703125 L 1.433594 -1.339844 C 1.433594 -0.59375 2.011719 0 2.789062 0 C 3.535156 0 4.128906 -0.59375 4.128906 -1.339844 L 4.128906 -7.621094 C 4.128906 -8.824219 4.695312 -9.953125 5.609375 -10.761719 C 6.523438 -11.554688 7.714844 -12.027344 8.933594 -12.027344 C 10.152344 -12.027344 11.171875 -11.554688 11.90625 -10.714844 C 12.621094 -9.90625 13.015625 -8.75 13.015625 -7.515625 L 13.015625 -1.3125 C 13.015625 -0.535156 13.597656 0.015625 14.34375 0.015625 Z M 14.34375 0.015625 "/></g></g></g><g fill="#ff3131" fill-opacity="1"><g transform="translate(144.218839, 19.901077)"><g><path d="M 8.109375 0.183594 C 10.136719 0.183594 12.027344 -0.640625 13.382812 -1.996094 C 14.738281 -3.351562 15.546875 -5.226562 15.546875 -7.253906 C 15.546875 -9.28125 14.738281 -11.144531 13.382812 -12.53125 C 12.027344 -13.886719 10.136719 -14.710938 8.109375 -14.710938 C 6.097656 -14.710938 4.253906 -13.917969 2.867188 -12.53125 C 1.480469 -11.144531 0.671875 -9.269531 0.671875 -7.253906 C 0.671875 -5.242188 1.480469 -3.351562 2.867188 -1.996094 C 4.253906 -0.609375 6.097656 0.183594 8.109375 0.183594 Z M 8.109375 -2.515625 C 6.8125 -2.515625 5.625 -3.019531 4.753906 -3.917969 C 3.886719 -4.785156 3.367188 -5.976562 3.367188 -7.253906 C 3.367188 -8.535156 3.886719 -9.726562 4.753906 -10.59375 C 5.625 -11.460938 6.8125 -11.980469 8.109375 -11.980469 C 9.433594 -11.980469 10.609375 -11.460938 11.476562 -10.59375 C 12.347656 -9.726562 12.851562 -8.535156 12.851562 -7.253906 C 12.851562 -5.976562 12.347656 -4.785156 11.476562 -3.917969 C 10.609375 -3.019531 9.433594 -2.515625 8.109375 -2.515625 Z M 8.109375 -2.515625 "/></g></g></g><g fill="#ff3131" fill-opacity="1"><g transform="translate(159.184946, 19.901077)"><g><path d="M 2.4375 0 C 3.1875 0 3.75 -0.546875 3.75 -1.324219 L 3.75 -7.53125 C 3.75 -8.75 4.191406 -9.894531 4.984375 -10.699219 C 5.777344 -11.539062 6.84375 -11.996094 8.0625 -11.996094 C 9.269531 -11.996094 10.367188 -11.507812 11.171875 -10.671875 C 11.964844 -9.863281 12.421875 -8.71875 12.4375 -7.5 L 12.4375 -1.324219 C 12.4375 -0.546875 13.046875 0 13.796875 0 C 14.542969 0 15.121094 -0.546875 15.121094 -1.324219 L 15.121094 -7.53125 C 15.121094 -9.480469 14.375 -11.28125 13.09375 -12.605469 C 11.769531 -13.933594 10.015625 -14.710938 8.0625 -14.710938 C 6.128906 -14.710938 4.375 -13.933594 3.078125 -12.605469 C 1.796875 -11.28125 1.050781 -9.480469 1.050781 -7.53125 L 1.050781 -1.324219 C 1.050781 -0.945312 1.1875 -0.640625 1.480469 -0.382812 C 1.738281 -0.121094 2.058594 0 2.4375 0 Z M 2.4375 0 "/></g></g></g><g fill="#ff3131" fill-opacity="1"><g transform="translate(174.516803, 19.901077)"><g><path d="M 14.632812 4.601562 C 15.410156 4.601562 16.019531 4.023438 16.019531 3.246094 L 16.019531 -13.351562 C 16.019531 -13.734375 15.882812 -14.070312 15.625 -14.328125 C 15.335938 -14.585938 15.015625 -14.726562 14.664062 -14.726562 C 14.296875 -14.726562 13.949219 -14.574219 13.703125 -14.328125 C 13.445312 -14.070312 13.308594 -13.734375 13.308594 -13.351562 L 13.308594 -7.421875 C 13.308594 -6.1875 12.773438 -5.03125 11.90625 -4.175781 C 11.035156 -3.308594 9.863281 -2.804688 8.644531 -2.804688 C 7.378906 -2.804688 6.21875 -3.308594 5.351562 -4.175781 C 4.480469 -5.03125 3.964844 -6.1875 3.964844 -7.421875 L 3.964844 -13.351562 C 3.964844 -13.734375 3.824219 -14.070312 3.566406 -14.328125 C 3.324219 -14.574219 2.972656 -14.726562 2.605469 -14.726562 C 1.828125 -14.726562 1.234375 -14.128906 1.234375 -13.351562 L 1.234375 -7.484375 C 1.234375 -5.472656 2.042969 -3.597656 3.398438 -2.242188 C 4.753906 -0.882812 6.628906 -0.078125 8.644531 -0.078125 C 10.425781 -0.078125 12.027344 -0.824219 13.308594 -2.105469 L 13.308594 3.246094 C 13.308594 4.023438 13.886719 4.601562 14.632812 4.601562 Z M 14.632812 4.601562 "/></g></g></g></svg>